<svg width="24" height="24" viewBox="0 0 14 13" fill="none" xmlns="http://www.w3.org/2000/svg">
<path d="M6.6 12.2L5.91667 11.5917C4.15 9.9132 2.72222 8.46565 1.63333 7.24903C0.544445 6.03241 0 4.78199 0 3.49778C0 2.50646 0.333333 1.67567 1 1.0054C1.66667 0.335134 2.48889 0 3.46667 0C4.01111 0 4.55833 0.137996 5.10833 0.413989C5.65833 0.689982 6.15556 1.1434 6.6 1.77424C7.07778 1.1434 7.58056 0.689982 8.10833 0.413989C8.63611 0.137996 9.17778 0 9.73333 0C10.7111 0 11.5333 0.335134 12.2 1.0054C12.8667 1.67567 13.2 2.50646 13.2 3.49778C13.2 4.78199 12.6556 6.03241 11.5667 7.24903C10.4778 8.46565 9.05 9.9132 7.28333 11.5917L6.6 12.2Z" fill="#E65738"/>
</svg>
