<svg width="29" height="28" viewBox="0 0 29 28" fill="none" xmlns="http://www.w3.org/2000/svg" stroke='#71717A'>
<g clip-path="url(#clip0_2973_34420)">
<path d="M23.8406 11.9876L15.0906 4.03605C14.9293 3.88848 14.7186 3.80664 14.5 3.80664C14.2814 3.80664 14.0707 3.88848 13.9094 4.03605L5.15937 11.9876C5.07133 12.0708 5.00081 12.1707 4.95197 12.2815C4.90313 12.3924 4.87696 12.5118 4.875 12.6329V22.7501C4.875 22.9822 4.96719 23.2047 5.13128 23.3688C5.29538 23.5329 5.51794 23.6251 5.75 23.6251H23.25C23.4821 23.6251 23.7046 23.5329 23.8687 23.3688C24.0328 23.2047 24.125 22.9822 24.125 22.7501V12.6329C24.123 12.5118 24.0969 12.3924 24.048 12.2815C23.9992 12.1707 23.9287 12.0708 23.8406 11.9876V11.9876Z" stroke-width="1.5" stroke-linecap="round" stroke-linejoin="round"/>
</g>
<defs>
<clipPath id="clip0_2973_34420">
<rect x="0.5" width="28" height="28" rx="14" fill="none"/>
</clipPath>
</defs>
</svg>
