<svg width="28" height="28" viewBox="0 0 28 29" fill="none" xmlns="http://www.w3.org/2000/svg">
<g id="user-circle 2" clip-path="url(#clip0_8942_7320)">
<path id="Vector" d="M14 24.6475C19.799 24.6475 24.5 19.9465 24.5 14.1475C24.5 8.34847 19.799 3.64746 14 3.64746C8.20101 3.64746 3.5 8.34847 3.5 14.1475C3.5 19.9465 8.20101 24.6475 14 24.6475Z" stroke="#2E323F" stroke-width="1.35484" stroke-linecap="round" stroke-linejoin="round"/>
<path id="Vector_2" d="M14 17.6475C16.4162 17.6475 18.375 15.6887 18.375 13.2725C18.375 10.8562 16.4162 8.89746 14 8.89746C11.5838 8.89746 9.625 10.8562 9.625 13.2725C9.625 15.6887 11.5838 17.6475 14 17.6475Z" stroke="#2E323F" stroke-width="1.35484" stroke-linecap="round" stroke-linejoin="round"/>
<path id="Vector_3" d="M6.97852 21.9575C7.63685 20.6608 8.64141 19.5717 9.88083 18.8109C11.1202 18.0502 12.5461 17.6475 14.0004 17.6475C15.4547 17.6475 16.8805 18.0502 18.12 18.8109C19.3594 19.5717 20.3639 20.6608 21.0223 21.9575" stroke="#2E323F" stroke-width="1.35484" stroke-linecap="round" stroke-linejoin="round"/>
</g>
<defs>
<clipPath id="clip0_8942_7320">
<rect width="28" height="28" fill="white" transform="translate(0 0.147461)"/>
</clipPath>
</defs>
</svg>
